<svg
	xmlns="http://www.w3.org/2000/svg"
	width="118.823"
	height="35.639"
	viewBox="0 0 118.823 35.639"
>
	<path
		id="Trazado_1"
		data-name="Trazado 1"
		d="M140.82,21.323c-.02.358-.054.716-.054,1.074-.006,3.547,0,7.094-.009,10.641,0,1.422-.271,1.668-1.705,1.68-.62.005-1.239,0-1.859,0a1.217,1.217,0,0,1-1.391-1.392c.009-2.1,0-4.2,0-6.3q0-5.993,0-11.985c0-1.48.28-1.758,1.735-1.766,1.034-.006,2.068.029,3.1-.011a1.894,1.894,0,0,1,1.84,1.055c2.741,4.5,5.518,8.975,8.285,13.458.176.285.371.559.646.972.35-.538.634-.955.9-1.384,2.679-4.334,5.369-8.662,8.019-13.015a1.963,1.963,0,0,1,1.925-1.087c1.135.043,2.273.017,3.409.013A1.17,1.17,0,0,1,167,14.6q-.006,9.4,0,18.8a1.179,1.179,0,0,1-1.351,1.318c-.688,0-1.376.011-2.066,0-1.213-.02-1.525-.321-1.53-1.543-.011-3.582,0-7.163-.006-10.745V21.343l-.3-.1c-.231.35-.472.693-.692,1.05-2.293,3.724-4.6,7.438-6.858,11.183a2.171,2.171,0,0,1-2.263,1.251,6.161,6.161,0,0,0-1.237,0,1.967,1.967,0,0,1-2.009-1.135c-2.252-3.708-4.538-7.4-6.812-11.089-.261-.423-.537-.836-.806-1.254l-.25.076"
		transform="translate(-48.178 -13.227)"
		fill="#3f6380"
	/>
	<path
		id="Trazado_2"
		data-name="Trazado 2"
		d="M131.738,17.772h-1.387q-9.1,0-18.192,0c-2.016,0-2.266.251-2.269,2.247,0,2.756-.008,5.513,0,8.269.006,1.571.369,1.929,1.971,1.931q9.407.01,18.812.006c1.237,0,1.342.146.926,1.3a4.5,4.5,0,0,1-4.178,3.177c-2.265.15-4.542.166-6.813.162-3.616-.007-7.234-.005-10.845-.15A4.571,4.571,0,0,1,105,30.094c-.174-4.087-.171-8.193.007-12.28a4.522,4.522,0,0,1,4.83-4.527q8.68-.12,17.363-.005a4.477,4.477,0,0,1,4.534,4.49"
		transform="translate(-48.178 -13.227)"
		fill="#3f6380"
	/>
	<path
		id="Trazado_3"
		data-name="Trazado 3"
		d="M59.192,13.273c2.928,0,5.856-.019,8.783.006,3.417.03,5.391,1.654,5.64,5.018a46.018,46.018,0,0,1-.114,7.83,4.543,4.543,0,0,1-4.783,4.242c-4.614.081-9.23.047-13.846.061-1.607,0-1.607,0-1.608,1.555,0,2.737,0,2.737-2.761,2.735-2.119,0-2.3-.183-2.307-2.277,0-1.826.037-3.653-.016-5.477-.025-.872.3-1.112,1.137-1.108,5.683.029,11.367.016,17.05.013,2.068,0,2.267-.2,2.27-2.216,0-1.412.016-2.825,0-4.236-.018-1.146-.318-1.475-1.464-1.552-.858-.057-1.722-.03-2.583-.03-5.132,0-10.264-.017-15.4.018-.778.006-1.062-.212-1-.986.052-.685-.006-1.377.017-2.065.04-1.17.4-1.523,1.586-1.528,3.134-.012,6.268,0,9.4,0"
		transform="translate(-48.178 -13.227)"
		fill="#3f6380"
	/>
	<path
		id="Trazado_4"
		data-name="Trazado 4"
		d="M89.253,13.271q5.784,0,11.567,0c1.435,0,1.7.269,1.725,1.672.053,2.891.053,2.89-2.857,2.891-2.237,0-4.476.028-6.713-.013-.914-.016-1.267.264-1.257,1.237.044,4.613.022,9.226.019,13.839,0,1.55-.262,1.811-1.788,1.82-.517,0-1.033.007-1.549,0-1.246-.018-1.584-.349-1.586-1.609q-.009-6.869,0-13.736c0-1.527,0-1.535-1.543-1.535-2.582,0-5.164.008-7.746.012-1.18,0-1.473-.276-1.514-1.432-.112-3.147-.112-3.147,3.019-3.147H89.253"
		transform="translate(-48.178 -13.227)"
		fill="#3f6380"
	/>
	<text
		id="PADEL_TRAINING_CLUB_MANTA"
		data-name="PADEL TRAINING CLUB MANTA"
		transform="translate(0 32)"
		fill="#71a2b8"
		fontSize="7.372"
		fontFamily="WorkSans-SemiBold, Work Sans"
		fontWeight="600"
	>
		<tspan x="0" y="0" letter-spacing="-0.02em">
			P
		</tspan>
		<tspan y="0" letter-spacing="0.04em">
			A
		</tspan>
		<tspan y="0" letter-spacing="0.039em">
			D
		</tspan>
		<tspan y="0" letter-spacing="0.04em">
			E
		</tspan>
		<tspan y="0" letter-spacing="0.016em">
			L
		</tspan>
		<tspan y="0" letter-spacing="0.019em">
			{' '}
		</tspan>
		<tspan y="0" letter-spacing="0.039em">
			T
		</tspan>
		<tspan y="0" letter-spacing="0.04em">
			RAI
		</tspan>
		<tspan y="0" letter-spacing="0.039em">
			NIN
		</tspan>
		<tspan y="0" letter-spacing="0.04em">
			G
		</tspan>
		<tspan y="0" xmlSpace="preserve" letter-spacing="0.039em">
			{' '}
			CLUB{' '}
		</tspan>
		<tspan y="0" letter-spacing="0.039em">
			M
		</tspan>
		<tspan y="0" letter-spacing="0.04em">
			A
		</tspan>
		<tspan y="0" letter-spacing="0.039em">
			N
		</tspan>
		<tspan y="0" letter-spacing="-0.045em">
			T
		</tspan>
		<tspan y="0">A</tspan>
	</text>
</svg>