<?xml version="1.0" encoding="UTF-8"?>
<svg id="Capa_1" xmlns="http://www.w3.org/2000/svg" viewBox="0 0 34.55 39.4">
  <defs>
    <style>
      .cls-1 {
        fill-rule: evenodd;
      }

      .cls-1, .cls-2 {
        fill: #fff;
      }
    </style>
  </defs>
  <g id="Grupo_1173">
    <path id="Trazado_911" class="cls-2" d="M27.62,11.79c-5.71-5.71-14.97-5.71-20.68,0-5.71,5.71-5.71,14.97,0,20.68s14.97,5.71,20.68,0c2.74-2.74,4.28-6.46,4.28-10.34,0-3.88-1.54-7.6-4.28-10.34M18.6,4.9c3.15.24,6.17,1.34,8.73,3.18l.9-1.07.84-1.01,2.03,1.7-.85,1.01-.9,1.07.13.13c6.75,6.75,6.75,17.68,0,24.43-6.75,6.75-17.68,6.75-24.43,0s-6.75-17.68,0-24.43c0,0,0,0,0,0l.13-.13-.9-1.07-.85-1.01,2.03-1.7.85,1.01.9,1.07c2.56-1.84,5.58-2.94,8.73-3.18v-2.25h-.96c-.73,0-1.33-.59-1.33-1.32C13.66.6,14.25,0,14.99,0h4.58c.73,0,1.33.59,1.33,1.32,0,.73-.59,1.33-1.32,1.33h-.97v2.25Z"/>
    <path id="Trazado_912" class="cls-1" d="M22.63,13.69c.47-.56,1.3-.63,1.86-.16.56.47.63,1.3.16,1.86l-4.73,5.64c.61,1.46-.09,3.14-1.55,3.75-1.46.61-3.14-.09-3.75-1.55-.61-1.46.09-3.14,1.55-3.75.54-.23,1.14-.28,1.72-.15l4.73-5.64ZM17.28,21.12c.56,0,1.01.45,1.01,1.01s-.45,1.01-1.01,1.01-1.01-.45-1.01-1.01.45-1.01,1.01-1.01h0"/>
    <rect id="Rect치ngulo_952" class="cls-2" x="16.81" y="9.7" width=".93" height="2.18"/>
    <rect id="Rect치ngulo_953" class="cls-2" x="4.84" y="21.66" width="2.18" height=".93"/>
    <rect id="Rect치ngulo_954" class="cls-2" x="16.81" y="32.38" width=".93" height="2.18"/>
    <rect id="Rect치ngulo_955" class="cls-2" x="27.53" y="21.66" width="2.18" height=".93"/>
  </g>
</svg>