<?xml version="1.0" encoding="UTF-8"?>
<svg id="Capa_1" xmlns="http://www.w3.org/2000/svg" viewBox="0 0 41.57 41.57">
  <defs>
    <style>
      .cls-1 {
        fill: #fff;
      }
    </style>
  </defs>
  <g id="Grupo_1175">
    <path id="Trazado_914" class="cls-1" d="M40.47,0H1.1C.49,0,0,.5,0,1.1v39.37c0,.61.49,1.1,1.1,1.1h39.37c.61,0,1.1-.49,1.1-1.1V1.1c0-.61-.49-1.1-1.1-1.1M39.06,38.36q0,.74-.73.74H2.82c-.15.02-.28-.09-.3-.24,0-.02,0-.04,0-.06V3.16q0-.68.68-.68h35.16q.7,0,.7.7v35.18"/>
    <path id="Trazado_915" class="cls-1" d="M19.25,20.76v-11.16c0-.38.04-.39.42-.38.77.02,1.55,0,2.32,0,.28,0,.33.03.34.31v22.46c0,.37-.07.4-.45.4-.74-.02-1.48-.02-2.21,0-.35,0-.42-.03-.42-.4v-11.22"/>
    <path id="Trazado_916" class="cls-1" d="M9.54,24.59v-7.45c0-.33,0-.33.33-.33.85,0,1.7,0,2.55,0,.23,0,.32.06.32.3,0,4.97,0,9.95,0,14.92,0,.34-.03.35-.37.34-.81-.01-1.61-.01-2.42,0-.37,0-.4.01-.4-.36v-7.42"/>
    <path id="Trazado_917" class="cls-1" d="M32.04,28.23v3.79c0,.35-.04.36-.39.35-.81-.01-1.63-.01-2.44,0-.3,0-.35-.01-.35-.31,0-2.57,0-5.14,0-7.71,0-.21.08-.26.28-.26.88,0,1.75,0,2.63,0,.23,0,.3.07.29.3,0,1.28,0,2.56,0,3.84h0Z"/>
  </g>
</svg>