<?xml version="1.0" encoding="UTF-8"?>
<svg id="Capa_2" xmlns="http://www.w3.org/2000/svg" viewBox="0 0 41.12 38.71">
  <defs>
    <style>
      .cls-1 {
        fill: none;
        stroke: #f7f7f7;
        stroke-miterlimit: 10;
        stroke-width: 1.2px;
      }
    </style>
  </defs>
  <g id="Capa_1-2" data-name="Capa_1">
    <g>
      <path class="cls-1" d="M35.19,30.02c-1.04-2.25-3.84-4.58-3.84-10.24v-1.93c0-5.96-4.83-10.8-10.8-10.8h0c-5.96,0-10.8,4.83-10.8,10.8v1.93c0,5.66-2.79,7.99-3.84,10.24-.54,1.16.32,2.48,1.6,2.48h26.08c1.28,0,2.13-1.32,1.6-2.48Z"/>
      <g>
        <path class="cls-1" d="M12.58,4.45c-4,2.22-6.8,6.18-7.56,10.69"/>
        <path class="cls-1" d="M.59,14.4C1.58,8.54,5.21,3.41,10.4.52"/>
      </g>
      <g>
        <path class="cls-1" d="M28.54,4.45c4,2.22,6.8,6.18,7.56,10.69"/>
        <path class="cls-1" d="M40.53,14.4c-.99-5.86-4.61-10.99-9.81-13.87"/>
      </g>
      <path class="cls-1" d="M24.2,7.05c0-2.26-1.63-4.09-3.64-4.09s-3.64,1.83-3.64,4.09"/>
      <path class="cls-1" d="M15.34,32.89c0,2.88,2.34,5.22,5.22,5.22s5.22-2.34,5.22-5.22"/>
    </g>
  </g>
</svg>