<?xml version="1.0" encoding="UTF-8"?>
<svg id="Capa_2" xmlns="http://www.w3.org/2000/svg" viewBox="0 0 37.81 40.69">
  <defs>
    <style>
      .cls-1 {
        fill: #f7f7f7;
      }
    </style>
  </defs>
  <g id="Capa_1-2" data-name="Capa_1">
    <g>
      <path class="cls-1" d="M36.97,17.45l-.15-.13c-.23-.2-.49-.34-.76-.44l1.18-1.36c.41-.48.61-1.09.55-1.72-.05-.63-.35-1.2-.83-1.62l-.15-.13c-.26-.23-.57-.39-.89-.49l1.14-1.07c.98-.93.99-2.51.03-3.52l-.14-.15c-.46-.49-1.08-.77-1.74-.8-.51-.02-.99.1-1.39.35v-3.21c0-1.74-1.42-3.16-3.16-3.16h-14.61c-1.74,0-3.16,1.42-3.16,3.16v7.86c-.71.14-1.28.61-1.48,1.25-.49,1.58-.85,2.76-1.14,3.72-.54,1.79-.83,2.78-1.39,4.22-.61,1.57-.65,3.45-.69,4.97-.02.88-.04,1.78-.19,2.09-.08.16-.86,1.41-1.52,2.45l-1.2-1.2c-.23-.23-.6-.23-.82,0L.17,32.82c-.11.11-.17.26-.17.41s.06.3.17.41l6.87,6.87c.23.23.6.23.82,0s.23-.6,0-.82l-6.46-6.46,3.47-3.47,10.76,10.76c.11.11.26.17.41.17s.3-.06.41-.17c.23-.23.23-.6,0-.82l-.03-.03c.39-.4,1.01-1.03,1.55-1.54,6.4.35,9.2-3.54,10.27-5.02.04-.06.08-.11.11-.15h2.29c1.74,0,3.16-1.42,3.16-3.16v-1.18c.17.04.33.06.5.06.45,0,.86-.16,1.13-.48l1.72-1.98c.41-.47.6-1.07.54-1.7-.05-.62-.35-1.19-.82-1.6l-.14-.12c-.25-.22-.53-.37-.84-.47l1.34-1.54c.85-.98.72-2.48-.28-3.34ZM36.21,13.06c.25.22.4.51.43.84.03.32-.07.62-.27.86l-1.76,2.02c-.06.07-.22.1-.4.07-.29-.04-.62-.21-.89-.45l-.15-.13c-.28-.24-.49-.54-.57-.82-.06-.18-.05-.34,0-.41l1.75-2.02c.2-.24.49-.38.81-.39.03,0,.05,0,.07,0,.3,0,.59.11.82.31l.15.13ZM35.09,7.18s.05,0,.07,0c.36.02.7.17.95.44l.14.15c.52.55.53,1.39.02,1.88l-2.06,1.94c-.08.07-.26.09-.47.03-.31-.08-.65-.3-.93-.59l-.14-.15c-.28-.29-.48-.65-.54-.96-.04-.21-.02-.39.05-.46l2.06-1.94c.23-.22.53-.33.85-.33ZM17.81,36.95l-.26-.02-.19.18c-.59.56-1.31,1.29-1.76,1.74l-8.27-8.27c.69-1.11,1.63-2.61,1.72-2.8.25-.54.27-1.43.3-2.56.04-1.42.08-3.19.61-4.58.57-1.49.89-2.55,1.42-4.3.29-.96.64-2.13,1.13-3.71.11-.36.52-.46.64-.48.27-.04.67.01.89.32.76,1.07,1.1,2.14,1.01,3.17-.24,2.53-.53,3.99-1.21,6.02l-.1.3.2.25c1.45,1.84,3.42,6.37,1.55,11.69l1.1.38c.16-.45.28-.89.39-1.33h9.93c-1.21,1.58-3.85,4.38-9.11,3.99ZM32.65,28.08v1.72c0,1.1-.89,2-2,2h-13.43c.73-4.49-.84-8.22-2.18-10.05.64-1.98.93-3.49,1.17-5.99.12-1.32-.28-2.65-1.22-3.96-.23-.33-.57-.56-.94-.7V3.16c0-1.1.89-2,2-2h14.61c1.1,0,2,.89,2,2v4.24l-1.28,1.2c-.38.36-.52.92-.4,1.55.11.53.41,1.07.84,1.53l.14.15c.35.37.76.65,1.18.81l-1.43,1.64c-.33.38-.42.93-.24,1.51.15.49.48.98.93,1.36l.15.13c.23.19.47.35.72.48l-1.56,1.79c-.33.38-.42.93-.24,1.51.15.49.48.98.93,1.36l.15.13c.26.23.55.4.83.52l-1.67,1.92c-.33.38-.41.92-.24,1.49.15.49.47.96.91,1.34l.14.12c.06.05.11.08.17.13h-.06ZM36.13,23.81c.24.21.39.5.42.82.03.31-.07.61-.26.84l-1.72,1.98c-.12.14-.7.11-1.26-.37l-.14-.13c-.27-.24-.48-.53-.56-.8-.05-.17-.05-.33,0-.39l1.72-1.98c.2-.23.48-.37.79-.38.02,0,.05,0,.07,0,.29,0,.57.1.8.3l.14.12ZM36.37,20.03l-1.75,2.02c-.13.15-.72.12-1.3-.38l-.15-.13c-.28-.24-.49-.54-.57-.82-.06-.18-.05-.34,0-.41l1.75-2.02c.23-.26.55-.4.88-.4.29,0,.58.1.82.31l.15.13c.51.44.59,1.21.16,1.7Z"/>
      <rect class="cls-1" x="22.06" y="29.21" width="2.58" height="1.16"/>
      <rect class="cls-1" x="5.16" y="32.88" width="1.16" height="2.43" transform="translate(-22.43 14.04) rotate(-45)"/>
      <path class="cls-1" d="M27.22,10.31c-.32,0-.58.26-.58.58v2h-6.57v-6.57h3.61c.32,0,.58-.26.58-.58s-.26-.58-.58-.58h-4.19c-.32,0-.58.26-.58.58v7.73c0,.32.26.58.58.58h7.73c.32,0,.58-.26.58-.58v-2.58c0-.32-.26-.58-.58-.58Z"/>
      <path class="cls-1" d="M27.22,17.19h-7.73c-.32,0-.58.26-.58.58v7.73c0,.32.26.58.58.58h7.73c.32,0,.58-.26.58-.58v-7.73c0-.32-.26-.58-.58-.58ZM26.64,24.92h-6.57v-6.57h6.57v6.57Z"/>
      <path class="cls-1" d="M22.48,8.76c-.23-.23-.6-.23-.82,0s-.23.6,0,.82l1.72,1.72c.11.11.26.17.41.17.01,0,.02,0,.03,0,.17,0,.32-.09.42-.22l3.44-4.3c.2-.25.16-.62-.09-.82-.25-.2-.62-.16-.82.09l-3.03,3.79-1.26-1.26Z"/>
    </g>
  </g>
</svg>