<?xml version="1.0" encoding="UTF-8"?>
<svg id="Capa_2" data-name="Capa 2" xmlns="http://www.w3.org/2000/svg" viewBox="0 0 35.38 26.42">
  <defs>
    <style>
      .cls-1 {
        fill: #f7f7f7;
        stroke-width: 0px;
      }
    </style>
  </defs>
  <g id="Capa_1-2" data-name="Capa 1">
    <g>
      <path class="cls-1" d="M11.45,26.32c-.23,0-.42-.19-.42-.42s.19-.42.42-.42h12.47c.23,0,.42.19.42.42s-.19.42-.42.42h-12.47Z"/>
      <path class="cls-1" d="M.52,23.33c-.23,0-.42-.19-.42-.42V.52C.1.29.29.1.52.1h34.34c.23,0,.42.19.42.42v22.39c0,.23-.19.42-.42.42H.52ZM.94,22.49h33.5V.94H.94v21.56Z"/>
      <path class="cls-1" d="M26.67,12.2c-2.28,0-4.13-1.85-4.13-4.13s1.85-4.13,4.13-4.13c.67,0,1.34.17,1.93.48l.03.02c1.34.73,2.17,2.12,2.17,3.63,0,.16-.01.32-.03.49v.03s0,.02,0,.02c-.27,2.06-2.03,3.6-4.09,3.6ZM26.67,4.78c-1.81,0-3.29,1.48-3.29,3.29s1.48,3.29,3.29,3.29c1.35,0,2.55-.81,3.05-2.07l.16-.39-3.27-.42c-.14-.02-.26-.1-.32-.22-.06-.12-.06-.27,0-.39l1.56-2.9-.41-.1c-.26-.06-.52-.09-.78-.09ZM27.32,7.74l2.66.34-.05-.42c-.1-.76-.46-1.47-1.03-1.99l-.31-.29-1.27,2.36Z"/>
      <path class="cls-1" d="M13.94,18.88c-.23,0-.42-.19-.42-.42v-8.96c0-.23.19-.42.42-.42s.42.19.42.42v8.96c0,.23-.19.42-.42.42Z"/>
      <path class="cls-1" d="M4.98,18.88c-.23,0-.42-.19-.42-.42v-2.99c0-.23.19-.42.42-.42s.42.19.42.42v2.99c0,.23-.19.42-.42.42Z"/>
      <path class="cls-1" d="M22.9,15.9c-.23,0-.42-.19-.42-.42s.19-.42.42-.42h7.46c.23,0,.42.19.42.42s-.19.42-.42.42h-7.46Z"/>
      <path class="cls-1" d="M22.9,18.88c-.23,0-.42-.19-.42-.42s.19-.42.42-.42h7.46c.23,0,.42.19.42.42s-.19.42-.42.42h-7.46Z"/>
      <path class="cls-1" d="M10.95,18.88c-.23,0-.42-.19-.42-.42v-5.97c0-.23.19-.42.42-.42s.42.19.42.42v5.97c0,.23-.19.42-.42.42Z"/>
      <path class="cls-1" d="M16.93,18.88c-.23,0-.42-.19-.42-.42V5.03c0-.23.19-.42.42-.42s.42.19.42.42v13.44c0,.23-.19.42-.42.42Z"/>
      <g>
        <path class="cls-1" d="M23.92,25.38h-12.47c-.29,0-.52.23-.52.52s.23.52.52.52h12.47c.29,0,.52-.23.52-.52s-.23-.52-.52-.52Z"/>
        <path class="cls-1" d="M34.86,0H.52C.23,0,0,.23,0,.52v22.39c0,.29.23.52.52.52h34.34c.29,0,.52-.23.52-.52V.52c0-.29-.23-.52-.52-.52ZM34.34,22.39H1.04V1.04h33.3v21.35Z"/>
        <path class="cls-1" d="M26.67,12.3c2.12,0,3.92-1.58,4.2-3.73.02-.17.03-.34.03-.5,0-1.55-.85-2.98-2.25-3.74-.61-.32-1.29-.49-1.98-.49-2.33,0-4.23,1.9-4.23,4.23s1.9,4.23,4.23,4.23ZM28.84,5.74c.55.51.9,1.19,1,1.93l.04.29-2.39-.3,1.14-2.12.22.2ZM26.67,4.88c.25,0,.51.03.75.09l.29.07-1.5,2.79c-.08.15-.08.33,0,.48.08.15.23.26.39.28l3.14.4-.11.27c-.49,1.22-1.65,2-2.96,2-1.76,0-3.19-1.43-3.19-3.19s1.43-3.19,3.19-3.19Z"/>
        <path class="cls-1" d="M13.94,18.98c.29,0,.52-.23.52-.52v-8.96c0-.29-.23-.52-.52-.52s-.52.23-.52.52v8.96c0,.29.23.52.52.52Z"/>
        <path class="cls-1" d="M4.98,18.98c.29,0,.52-.23.52-.52v-2.99c0-.29-.23-.52-.52-.52s-.52.23-.52.52v2.99c0,.29.23.52.52.52Z"/>
        <path class="cls-1" d="M22.9,16h7.46c.29,0,.52-.23.52-.52s-.23-.52-.52-.52h-7.46c-.29,0-.52.23-.52.52s.23.52.52.52Z"/>
        <path class="cls-1" d="M22.9,18.98h7.46c.29,0,.52-.23.52-.52s-.23-.52-.52-.52h-7.46c-.29,0-.52.23-.52.52s.23.52.52.52Z"/>
        <path class="cls-1" d="M10.96,18.98c.29,0,.52-.23.52-.52v-5.97c0-.29-.23-.52-.52-.52s-.52.23-.52.52v5.97c0,.29.23.52.52.52Z"/>
        <path class="cls-1" d="M16.93,18.98c.29,0,.52-.23.52-.52V5.03c0-.29-.23-.52-.52-.52s-.52.23-.52.52v13.44c0,.29.23.52.52.52Z"/>
        <path class="cls-1" d="M7.97,18.98c.29,0,.52-.23.52-.52v-7.46c0-.29-.23-.52-.52-.52s-.52.23-.52.52v7.46c0,.29.23.52.52.52Z"/>
      </g>
      <path class="cls-1" d="M7.97,18.88c-.23,0-.42-.19-.42-.42v-7.46c0-.23.19-.42.42-.42s.42.19.42.42v7.46c0,.23-.19.42-.42.42Z"/>
    </g>
  </g>
</svg>